<?xml version="1.0" encoding="utf-8"?>
<!-- Generator: Adobe Illustrator 16.0.0, SVG Export Plug-In . SVG Version: 6.00 Build 0)  -->
<!DOCTYPE svg PUBLIC "-//W3C//DTD SVG 1.1//EN" "http://www.w3.org/Graphics/SVG/1.1/DTD/svg11.dtd">
<svg version="1.1" id="Layer_1" xmlns="http://www.w3.org/2000/svg" xmlns:xlink="http://www.w3.org/1999/xlink" x="0px" y="0px"
     width="612px" height="792px" viewBox="0 0 612 792" enable-background="new 0 0 612 792" xml:space="preserve">
     <title>Connect</title>
<g>
    <path stroke="#000000" stroke-width="10" stroke-miterlimit="10" d="M284.86,490.418c-73.835,0-133.9-69.802-133.9-155.609
        c0-85.795,60.065-155.598,133.9-155.598s133.9,69.803,133.9,155.598C418.761,420.604,358.695,490.418,284.86,490.418z
         M284.86,203.17c-59.772,0-108.4,59.057-108.4,131.639c0,72.593,48.628,131.651,108.4,131.651c59.772,0,108.4-59.058,108.4-131.651
        C393.261,262.227,344.633,203.17,284.86,203.17z"/>
    <path stroke="#000000" stroke-width="10" stroke-miterlimit="10" d="M406.036,461.046c-7.051,0-12.75-5.354-12.75-11.979V194.808
        c0-6.612,5.699-11.979,12.75-11.979s12.75,5.367,12.75,11.979v254.27C418.786,455.691,413.074,461.046,406.036,461.046z"/>
    <path stroke="#000000" stroke-width="10" stroke-miterlimit="10" d="M306,620.5C150.526,620.5,24.046,491.52,24.046,333
        c0-158.52,126.48-287.5,281.954-287.5c155.461,0,281.94,128.98,281.94,287.5c0,39.699-6.464,76.906-17.722,102.05
        c-20.821,46.301-56.916,74.116-101.669,78.309c-23.371,2.192-41.73-2.3-54.735-13.356c-20.566-17.478-20.566-45.593-20.566-57.597
        c0-6.624,5.699-11.979,12.75-11.979s12.75,5.355,12.75,11.979c0,9.572,0,29.48,12.177,39.819
        c7.445,6.337,19.304,8.769,35.088,7.283c44.905-4.217,68.671-37.003,80.707-63.765c9.831-21.97,15.708-56.65,15.708-92.743
        c0-145.319-115.03-263.542-256.44-263.542S49.546,187.681,49.546,333S164.59,596.541,306,596.541
        c36.401,0,71.63-7.702,104.665-22.88c6.337-2.923,13.974-0.431,17.06,5.499c3.085,5.941,0.472,13.116-5.853,16.027
        C385.317,611.982,346.328,620.5,306,620.5z"/>
</g>
</svg>
