<svg xmlns="http://www.w3.org/2000/svg" version="1.1" id="icon-work" x="0px" y="0px" viewBox="0 0 612 792" enable-background="new 0 0 612 792" xml:space="preserve"><title>Work</title><path stroke="#000000" stroke-width="10" stroke-miterlimit="10" d="M215.387 460.731H95.319c-21.145 0-38.354-17.21-38.354-38.366V174.254c0-21.145 17.209-38.354 38.354-38.354h338.026c21.145 0 38.354 17.209 38.354 38.354v16.255l-11.989 9.015v-25.27c0-14.541-11.824-26.365-26.365-26.365H95.319c-14.541 0-26.365 11.824-26.365 26.365v248.111c0 14.541 11.824 26.377 26.365 26.377h123.679L215.387 460.731zM297.634 448.742h135.711c14.541 0 26.365-11.836 26.365-26.377V286.409l11.989-9.492v145.448c0 21.156-17.21 38.366-38.354 38.366H288.411L297.634 448.742z"/><path stroke="#000000" stroke-width="10" stroke-miterlimit="10" d="M150.907 236.85l-46.591-20.404c-6.077-2.613-6.806-5.783-6.806-9.119 0-4.627 3.335-7.809 7.962-7.809 2.026 0 4.345 0.293 7.962 2.025l58.887 27.057c3.042 1.45 5.349 4.639 5.349 8.256 0 3.617-2.308 6.793-5.349 8.244l-58.887 27.057c-3.617 1.744-5.936 2.026-7.962 2.026 -4.627 0-7.962-3.183-7.962-7.81 0-3.323 0.729-6.512 6.806-9.119L150.907 236.85z"/><path stroke="#000000" stroke-width="10" stroke-miterlimit="10" d="M470.53 279.75c-3.244 0-6.285-1.267-8.568-3.549l-34.395-34.407c-2.282-2.271-3.55-5.312-3.556-8.543 0-3.244 1.261-6.298 3.556-8.593l72.375-72.375c4.615-4.602 12.577-4.553 17.143 0l34.395 34.395c2.295 2.283 3.562 5.324 3.562 8.568s-1.267 6.285-3.567 8.58l-72.376 72.375C476.791 278.496 473.762 279.75 470.53 279.75zM508.603 160.753l-72.564 72.375 34.492 34.627c0.062 0 0.079-0.024 0.104-0.049l72.363-72.375L508.603 160.753z"/><path stroke="#000000" stroke-width="10" stroke-miterlimit="10" d="M211.14 503.1c-3.305 0-6.334-1.475-8.311-4.026 -2.014-2.602-2.668-6.017-1.793-9.352l12.718-49.052c0.539-2.001 1.591-3.807 3.054-5.245l251.764-251.764c4.089-4.107 11.133-4.357 15-0.478l37.008 37.008c3.99 3.99 3.795 10.722-0.459 14.994L268.307 486.992c-1.438 1.438-3.231 2.473-5.196 2.999l-49.076 12.735C213.074 502.972 212.101 503.1 211.14 503.1zM476.111 192.669L225.247 443.932l-12.044 46.616 46.867-12.167 250.828-250.932L476.111 192.669z"/><path stroke="#000000" stroke-width="10" stroke-miterlimit="10" d="M240.981 463.075c-1.536 0-3.066-0.588-4.241-1.757 -2.344-2.344-2.344-6.132 0-8.476l254.004-254.011c2.344-2.344 6.133-2.344 8.477 0 2.344 2.344 2.344 6.132 0 8.476l-253.999 254.01C244.053 462.487 242.517 463.075 240.981 463.075z"/></svg>
