<svg xmlns="http://www.w3.org/2000/svg" version="1.1" id="icon-profile" x="0px" y="0px" viewBox="0 0 612 792" enable-background="new 0 0 612 792" xml:space="preserve"><title>Profile</title><path stroke="#000000" stroke-width="10" stroke-miterlimit="10" d="M402.906 326.372c28.207-26.587 44.141-63.247 44.141-102.497 0-77.773-63.273-141.047-141.047-141.047 -77.773 0-141.047 63.274-141.047 141.047 0 39.25 15.934 75.91 44.141 102.497C120.055 354.409 69.328 420.967 69.328 510.75v45.422h473.344V510.75C542.672 420.967 491.945 354.409 402.906 326.372zM528.328 541.828H83.672V510.75c0-45.203 13.33-83.587 39.621-114.084 24.24-28.119 59.641-48.918 102.377-60.149l14.029-3.687 -11.448-8.91c-31.111-24.216-48.955-60.68-48.955-100.045 0-69.865 56.838-126.703 126.703-126.703 69.865 0 126.703 56.838 126.703 126.703 0 39.365-17.844 75.83-48.955 100.045l-11.447 8.91 14.029 3.687c42.735 11.231 78.138 32.031 102.377 60.149 26.291 30.497 39.621 68.881 39.621 114.084V541.828z"/></svg>
