<?xml version="1.0" encoding="utf-8"?>
<!-- Generator: Adobe Illustrator 16.0.0, SVG Export Plug-In . SVG Version: 6.00 Build 0)  -->
<!DOCTYPE svg PUBLIC "-//W3C//DTD SVG 1.1//EN" "http://www.w3.org/Graphics/SVG/1.1/DTD/svg11.dtd">
<svg version="1.1" id="Layer_1" xmlns="http://www.w3.org/2000/svg" xmlns:xlink="http://www.w3.org/1999/xlink" x="0px" y="0px"
     width="612px" height="792px" viewBox="0 0 612 792" enable-background="new 0 0 612 792" xml:space="preserve">
     <title>Profile</title>
<g>
    <path stroke="#000000" stroke-width="10" stroke-miterlimit="10" d="M402.906,326.372c28.207-26.587,44.141-63.247,44.141-102.497
        c0-77.773-63.273-141.047-141.047-141.047c-77.773,0-141.047,63.274-141.047,141.047c0,39.25,15.934,75.91,44.141,102.497
        C120.055,354.409,69.328,420.967,69.328,510.75v45.422h473.344V510.75C542.672,420.967,491.945,354.409,402.906,326.372z
         M528.328,541.828H83.672V510.75c0-45.203,13.33-83.587,39.621-114.084c24.24-28.119,59.641-48.918,102.377-60.149l14.029-3.687
        l-11.448-8.91c-31.111-24.216-48.955-60.68-48.955-100.045c0-69.865,56.838-126.703,126.703-126.703
        c69.865,0,126.703,56.838,126.703,126.703c0,39.365-17.844,75.83-48.955,100.045l-11.447,8.91l14.029,3.687
        c42.735,11.231,78.138,32.031,102.377,60.149c26.291,30.497,39.621,68.881,39.621,114.084V541.828z"/>
</g>
</svg>
