<?xml version="1.0" encoding="utf-8"?>
<!-- Generator: Adobe Illustrator 16.0.0, SVG Export Plug-In . SVG Version: 6.00 Build 0)  -->
<!DOCTYPE svg PUBLIC "-//W3C//DTD SVG 1.1//EN" "http://www.w3.org/Graphics/SVG/1.1/DTD/svg11.dtd">
<svg version="1.1" id="Layer_1" xmlns="http://www.w3.org/2000/svg" xmlns:xlink="http://www.w3.org/1999/xlink" x="0px" y="0px"
     width="612px" height="792px" viewBox="0 0 612 792" enable-background="new 0 0 612 792" xml:space="preserve">
     <title>Skills</title>
<path stroke="#000000" stroke-width="10" stroke-miterlimit="10" d="M68.213,294.396l128.967-86.12
    c5.618-3.752,7.136-11.353,3.378-16.977c-3.751-5.618-11.347-7.142-16.977-3.378L54.615,274.041
    c-11.003,7.344-17.57,19.633-17.57,32.865c0,13.231,6.567,25.52,17.57,32.864l128.967,86.12c2.087,1.396,4.449,2.062,6.787,2.062
    c3.954,0,7.833-1.909,10.19-5.44c3.758-5.624,2.24-13.226-3.378-16.977L68.213,319.408c-4.247-2.84-6.689-7.393-6.689-12.509
    C61.524,301.789,63.966,297.235,68.213,294.396z"/>
<path stroke="#000000" stroke-width="10" stroke-miterlimit="10" d="M551.265,274.041L422.292,187.92
    c-5.618-3.758-13.226-2.24-16.977,3.378c-3.758,5.624-2.24,13.225,3.378,16.977l128.967,86.12c4.247,2.84,6.689,7.393,6.689,12.503
    s-2.436,9.669-6.689,12.509l-128.961,86.127c-5.617,3.751-7.136,11.353-3.378,16.977c2.356,3.531,6.236,5.44,10.19,5.44
    c2.331,0,4.699-0.667,6.787-2.062l128.966-86.12c11.004-7.344,17.571-19.633,17.571-32.864S562.269,281.385,551.265,274.041z"/>
<path stroke="#000000" stroke-width="10" stroke-miterlimit="10" d="M362.433,122.644c-6.438-2.05-13.323,1.5-15.38,7.938
    L235.504,480.095c-2.057,6.438,1.499,13.323,7.938,15.38c1.236,0.392,2.491,0.581,3.721,0.581c5.184,0,9.994-3.316,11.659-8.525
    L370.37,138.023C372.427,131.585,368.871,124.7,362.433,122.644z"/>
</svg>
